<?xml version="1.0" encoding="UTF-8" standalone="no"?>
<svg
   xmlns:ns="http://ns.adobe.com/SaveForWeb/1.0/"
   xmlns:dc="http://purl.org/dc/elements/1.1/"
   xmlns:cc="http://creativecommons.org/ns#"
   xmlns:rdf="http://www.w3.org/1999/02/22-rdf-syntax-ns#"
   xmlns:svg="http://www.w3.org/2000/svg"
   xmlns="http://www.w3.org/2000/svg"
   xmlns:sodipodi="http://sodipodi.sourceforge.net/DTD/sodipodi-0.dtd"
   xmlns:inkscape="http://www.inkscape.org/namespaces/inkscape"
   version="1.1"
   x="0px"
   y="0px"
   viewBox="0 0 100 100"
   enable-background="new 0 0 64 64"
   xml:space="preserve"
   id="svg20"
   sodipodi:docname="noun_pair_488136.svg"
   width="100"
   height="100"
   inkscape:version="0.92.1 r15371"><defs
     id="defs24" /><sodipodi:namedview
     pagecolor="#ffffff"
     bordercolor="#666666"
     borderopacity="1"
     objecttolerance="10"
     gridtolerance="10"
     guidetolerance="10"
     inkscape:pageopacity="0"
     inkscape:pageshadow="2"
     inkscape:window-width="985"
     inkscape:window-height="616"
     id="namedview22"
     showgrid="false"
     inkscape:zoom="2.95"
     inkscape:cx="32"
     inkscape:cy="40"
     inkscape:window-x="0"
     inkscape:window-y="0"
     inkscape:window-maximized="0"
     inkscape:current-layer="svg20" /><metadata
     id="metadata2"><ns:sfw><ns:slices /><ns:sliceSourceBounds
         height="16384"
         width="16389"
         x="-8165"
         y="-8160"
         bottomLeftOrigin="true" /></ns:sfw><rdf:RDF><cc:Work
         rdf:about=""><dc:format>image/svg+xml</dc:format><dc:type
           rdf:resource="http://purl.org/dc/dcmitype/StillImage" /><dc:title></dc:title></cc:Work></rdf:RDF></metadata><g
     id="g14"
     transform="matrix(1.8750836,0,0,1.8750836,-9.7158788,-12.248634)"><g
       id="g12"><path
         d="m 36.237,47.091 -9.42,-26.467 c -0.089,-0.25 -0.273,-0.454 -0.513,-0.568 -0.24,-0.114 -0.515,-0.128 -0.765,-0.039 L 7.894,26.297 C 7.644,26.386 7.44,26.57 7.326,26.81 7.212,27.05 7.198,27.325 7.287,27.575 l 9.421,26.466 c 0.089,0.25 0.273,0.454 0.513,0.568 0.136,0.064 0.282,0.097 0.429,0.097 0.113,0 0.227,-0.02 0.335,-0.058 l 17.643,-6.28 c 0.522,-0.185 0.794,-0.758 0.609,-1.277 z m -17.979,5.338 -8.75,-24.583 15.76,-5.61 8.75,24.583 z"
         id="path4"
         inkscape:connector-curvature="0" /><path
         d="m 56.102,28.552 -17.669,-6.21 c -0.252,-0.089 -0.526,-0.073 -0.765,0.042 -0.239,0.115 -0.423,0.32 -0.511,0.57 l -3.289,9.364 c -0.184,0.521 0.091,1.092 0.612,1.275 0.518,0.185 1.091,-0.091 1.274,-0.612 l 2.958,-8.421 15.781,5.547 -8.65,24.618 -10.44,-3.668 c -0.52,-0.187 -1.092,0.09 -1.274,0.612 -0.184,0.521 0.091,1.092 0.612,1.274 l 11.384,4 c 0.109,0.039 0.221,0.057 0.331,0.057 0.413,0 0.799,-0.257 0.943,-0.669 l 9.313,-26.504 c 0.184,-0.521 -0.09,-1.092 -0.61,-1.275 z"
         id="path6"
         inkscape:connector-curvature="0" /><path
         d="m 26,11 h 12 c 0.553,0 1,-0.448 1,-1 C 39,9.448 38.553,9 38,9 H 26 c -0.552,0 -1,0.448 -1,1 0,0.552 0.448,1 1,1 z"
         id="path8"
         inkscape:connector-curvature="0" /><path
         d="m 26,15 h 12 c 0.553,0 1,-0.448 1,-1 0,-0.552 -0.447,-1 -1,-1 H 26 c -0.552,0 -1,0.448 -1,1 0,0.552 0.448,1 1,1 z"
         id="path10"
         inkscape:connector-curvature="0" /></g></g></svg>